# xmcd
#
# Track frame offsets: 
#        150
#        14628
#        30644
#        46998
#        66133
#        82442
#        107243
#        124312
#        141532
#        159497
#        177688
#        198006
#        216211
#        236821
#        253809
#        271071
#        287115
#        301703
#        318224
#        332646
#        348243
#
# Disc length: 4794 seconds
#
# Revision: 0
# Processed by: cddbd v1.5.2PL0 Copyright (c) Steve Scherf et al.
# Submitted via: ExactAudioCopy v0.99pb4
#
DISCID=4412b815
DTITLE=Various Artist - prevue promo 1122A-1
DYEAR=2003
DGENRE=pop
TTITLE0=Jewel - Staind
TTITLE1=Franky Perez - Cecilia(Radio Remix)
TTITLE2=Franky Perez - Cecilia
TTITLE3=Phoebe Snow - Sahara
TTITLE4=Eloise Laws - Out On A Limb
TTITLE5=Natalie Cole - I Fall To Pieces(From "Remembering Patsy Cline"
TTITLE5=)
TTITLE6=Joe - More and More
TTITLE7=Lee Ann Womack - She's Got You(From"Remembering Patsy Cline")
TTITLE8=Uncle Kracker - Memphis Soul Song
TTITLE9=Akon - Bananza (Belly Dancer)(LYRICS!)
TTITLE10=Ms. Dynamite - Dy-Na-Mi-Tee(Swizz Beatz Remix No Rap)
TTITLE11=Baby Drew - Disco Lady
TTITLE12=Norah Jones - Why Can't He Be You(From "Remembering Patsy Cli
TTITLE12=ne")
TTITLE13=Jonny Lang - Red Light(Original Mix)
TTITLE14=Jonny Lang - Red Light(Rock Mix)
TTITLE15=To My Surprise - In The Mood(Lyric)
TTITLE16=To My Surprise - Get It To Go
TTITLE17=Arcarnum - Hide 'n Seek
TTITLE18=Spineshank - Smothered
TTITLE19=Rooney - I'm Shakin
TTITLE20=Laguardia - Holy Ghost
EXTD=
EXTT0=
EXTT1=
EXTT2=
EXTT3=
EXTT4=
EXTT5=
EXTT6=
EXTT7=
EXTT8=
EXTT9=
EXTT10=
EXTT11=
EXTT12=
EXTT13=
EXTT14=
EXTT15=
EXTT16=
EXTT17=
EXTT18=
EXTT19=
EXTT20=
PLAYORDER=
